HIERARCHY
ROOT Hips
{
	OFFSET 0.000000 121.760803 0.000000
	CHANNELS 6 Xposition Yposition Zposition Xrotation Yrotation Zrotation 
	JOINT Spine
	{
		OFFSET 0.072000 7.257294 -0.789700
		CHANNELS 3 Xrotation Yrotation Zrotation
		JOINT Spine1
		{
			OFFSET 0.000000 12.508769 -0.658067
			CHANNELS 3 Xrotation Yrotation Zrotation
			JOINT Spine1_split
			{
				OFFSET 0.000000 12.508769 -0.658067
				CHANNELS 3 Xrotation Yrotation Zrotation
				JOINT Spine2
				{
					OFFSET 0.000000 12.508769 -0.658067
					CHANNELS 3 Xrotation Yrotation Zrotation
					JOINT Neck
					{
						OFFSET 0.000000 14.033295 7.520400
						CHANNELS 3 Xrotation Yrotation Zrotation
						JOINT Head
						{
							OFFSET 0.000000 8.198502 5.703100
							CHANNELS 3 Xrotation Yrotation Zrotation
							JOINT HeadTop_End
							{
								OFFSET 0.000000 17.760803 13.332701
								CHANNELS 3 Xrotation Yrotation Zrotation
								End Site
								{
									OFFSET 0.000000 0.000000 0.000000
								}
							}
						}
					}
					JOINT LeftShoulder
					{
						OFFSET 6.292450 5.785301 -0.669000
						CHANNELS 3 Xrotation Yrotation Zrotation
						JOINT LeftShoulder_split
						{
							OFFSET 6.292450 5.785301 -0.669000
							CHANNELS 3 Xrotation Yrotation Zrotation
							JOINT LeftArm
							{
								OFFSET 13.907140 -6.093903 1.965100
								CHANNELS 3 Xrotation Yrotation Zrotation
								JOINT LeftForeArm
								{
									OFFSET 34.140198 0.000000 0.000000
									CHANNELS 3 Xrotation Yrotation Zrotation
									JOINT LeftHand
									{
										OFFSET 40.960209 0.000000 0.000000
										CHANNELS 3 Xrotation Yrotation Zrotation
										JOINT LeftHandThumb1
										{
											OFFSET 10.006996 -7.170425 9.573125
											CHANNELS 3 Xrotation Yrotation Zrotation
											JOINT LeftHandThumb2
											{
												OFFSET 1.835007 -1.059448 1.059443
												CHANNELS 3 Xrotation Yrotation Zrotation
												JOINT LeftHandThumb3
												{
													OFFSET 2.112267 -1.219513 1.219518
													CHANNELS 3 Xrotation Yrotation Zrotation
													JOINT LeftHandThumb4
													{
														OFFSET 4.843811 -2.796570 2.796576
														CHANNELS 3 Xrotation Yrotation Zrotation
														End Site
														{
															OFFSET 0.000000 0.000000 0.000000
														}
													}
												}
											}
										}
										JOINT LeftHandIndex1
										{
											OFFSET 18.389847 -0.922348 4.596882
											CHANNELS 3 Xrotation Yrotation Zrotation
											JOINT LeftHandIndex2
											{
												OFFSET 4.711273 0.000000 0.000000
												CHANNELS 3 Xrotation Yrotation Zrotation
												JOINT LeftHandIndex3
												{
													OFFSET 2.886131 0.000000 0.000000
													CHANNELS 3 Xrotation Yrotation Zrotation
													JOINT LeftHandIndex4
													{
														OFFSET 6.145912 0.000000 0.000000
														CHANNELS 3 Xrotation Yrotation Zrotation
														End Site
														{
															OFFSET 0.000000 0.000000 0.000000
														}
													}
												}
											}
										}
										JOINT LeftHandMiddle1
										{
											OFFSET 18.013008 0.000000 0.000000
											CHANNELS 3 Xrotation Yrotation Zrotation
											JOINT LeftHandMiddle2
											{
												OFFSET 4.946693 0.000000 0.000000
												CHANNELS 3 Xrotation Yrotation Zrotation
												JOINT LeftHandMiddle3
												{
													OFFSET 3.342232 0.000000 0.000000
													CHANNELS 3 Xrotation Yrotation Zrotation
													JOINT LeftHandMiddle4
													{
														OFFSET 4.461754 0.000000 0.000000
														CHANNELS 3 Xrotation Yrotation Zrotation
														End Site
														{
															OFFSET 0.000000 0.000000 0.000000
														}
													}
												}
											}
										}
										JOINT LeftHandRing1
										{
											OFFSET 15.849892 -0.102921 -4.126150
											CHANNELS 3 Xrotation Yrotation Zrotation
											JOINT LeftHandRing2
											{
												OFFSET 3.527054 0.000000 0.000000
												CHANNELS 3 Xrotation Yrotation Zrotation
												JOINT LeftHandRing3
												{
													OFFSET 2.961098 0.000000 0.000000
													CHANNELS 3 Xrotation Yrotation Zrotation
													JOINT LeftHandRing4
													{
														OFFSET 4.927200 0.000000 0.000000
														CHANNELS 3 Xrotation Yrotation Zrotation
														End Site
														{
															OFFSET 0.000000 0.000000 0.000000
														}
													}
												}
											}
										}
										JOINT LeftHandPinky1
										{
											OFFSET 12.791824 -0.832031 -6.799156
											CHANNELS 3 Xrotation Yrotation Zrotation
											JOINT LeftHandPinky2
											{
												OFFSET 3.327133 0.000000 0.000000
												CHANNELS 3 Xrotation Yrotation Zrotation
												JOINT LeftHandPinky3
												{
													OFFSET 3.014900 0.000000 0.000000
													CHANNELS 3 Xrotation Yrotation Zrotation
													JOINT LeftHandPinky4
													{
														OFFSET 5.847786 0.000000 0.000000
														CHANNELS 3 Xrotation Yrotation Zrotation
														End Site
														{
															OFFSET 0.000000 0.000000 0.000000
														}
													}
												}
											}
										}
									}
								}
							}
						}
					}
					JOINT RightShoulder
					{
						OFFSET -6.292450 5.785301 -0.669000
						CHANNELS 3 Xrotation Yrotation Zrotation
						JOINT RightShoulder_split
						{
							OFFSET -6.292450 5.785301 -0.669000
							CHANNELS 3 Xrotation Yrotation Zrotation
							JOINT RightArm
							{
								OFFSET -13.907140 -6.093903 1.965100
								CHANNELS 3 Xrotation Yrotation Zrotation
								JOINT RightForeArm
								{
									OFFSET -34.140198 0.000000 0.000000
									CHANNELS 3 Xrotation Yrotation Zrotation
									JOINT RightHand
									{
										OFFSET -40.960209 0.000000 0.000000
										CHANNELS 3 Xrotation Yrotation Zrotation
										JOINT RightHandThumb1
										{
											OFFSET -10.007050 -7.170456 9.573117
											CHANNELS 3 Xrotation Yrotation Zrotation
											JOINT RightHandThumb2
											{
												OFFSET -1.835007 -1.059448 1.059443
												CHANNELS 3 Xrotation Yrotation Zrotation
												JOINT RightHandThumb3
												{
													OFFSET -2.112267 -1.219513 1.219518
													CHANNELS 3 Xrotation Yrotation Zrotation
													JOINT RightHandThumb4
													{
														OFFSET -4.843834 -2.796585 2.796590
														CHANNELS 3 Xrotation Yrotation Zrotation
														End Site
														{
															OFFSET 0.000000 0.000000 0.000000
														}
													}
												}
											}
										}
										JOINT RightHandIndex1
										{
											OFFSET -18.389870 -0.922424 4.596786
											CHANNELS 3 Xrotation Yrotation Zrotation
											JOINT RightHandIndex2
											{
												OFFSET -4.711273 0.000000 0.000000
												CHANNELS 3 Xrotation Yrotation Zrotation
												JOINT RightHandIndex3
												{
													OFFSET -2.886131 0.000000 0.000000
													CHANNELS 3 Xrotation Yrotation Zrotation
													JOINT RightHandIndex4
													{
														OFFSET -6.145920 0.000000 0.000000
														CHANNELS 3 Xrotation Yrotation Zrotation
														End Site
														{
															OFFSET 0.000000 0.000000 0.000000
														}
													}
												}
											}
										}
										JOINT RightHandMiddle1
										{
											OFFSET -18.013008 0.000000 0.000000
											CHANNELS 3 Xrotation Yrotation Zrotation
											JOINT RightHandMiddle2
											{
												OFFSET -4.946693 0.000000 0.000000
												CHANNELS 3 Xrotation Yrotation Zrotation
												JOINT RightHandMiddle3
												{
													OFFSET -3.342232 0.000000 0.000000
													CHANNELS 3 Xrotation Yrotation Zrotation
													JOINT RightHandMiddle4
													{
														OFFSET -4.461754 0.000000 0.000000
														CHANNELS 3 Xrotation Yrotation Zrotation
														End Site
														{
															OFFSET 0.000000 0.000000 0.000000
														}
													}
												}
											}
										}
										JOINT RightHandRing1
										{
											OFFSET -15.849876 -0.102936 -4.126237
											CHANNELS 3 Xrotation Yrotation Zrotation
											JOINT RightHandRing2
											{
												OFFSET -3.527054 0.000000 0.000000
												CHANNELS 3 Xrotation Yrotation Zrotation
												JOINT RightHandRing3
												{
													OFFSET -2.961098 0.000000 0.000000
													CHANNELS 3 Xrotation Yrotation Zrotation
													JOINT RightHandRing4
													{
														OFFSET -4.927200 0.000000 0.000000
														CHANNELS 3 Xrotation Yrotation Zrotation
														End Site
														{
															OFFSET 0.000000 0.000000 0.000000
														}
													}
												}
											}
										}
										JOINT RightHandPinky1
										{
											OFFSET -12.791786 -0.832077 -6.799222
											CHANNELS 3 Xrotation Yrotation Zrotation
											JOINT RightHandPinky2
											{
												OFFSET -3.327133 0.000000 0.000000
												CHANNELS 3 Xrotation Yrotation Zrotation
												JOINT RightHandPinky3
												{
													OFFSET -3.014900 0.000000 0.000000
													CHANNELS 3 Xrotation Yrotation Zrotation
													JOINT RightHandPinky4
													{
														OFFSET -5.847786 0.000000 0.000000
														CHANNELS 3 Xrotation Yrotation Zrotation
														End Site
														{
															OFFSET 0.000000 0.000000 0.000000
														}
													}
												}
											}
										}
									}
								}
							}
						}
					}
				}
			}
		}
	}
	JOINT LeftUpLeg
	{
		OFFSET 13.026900 -6.336304 -1.092800
		CHANNELS 3 Xrotation Yrotation Zrotation
		JOINT LeftLeg
		{
			OFFSET 0.524474 -46.096886 9.782700
			CHANNELS 3 Xrotation Yrotation Zrotation
			JOINT LeftFoot
			{
				OFFSET -0.524474 -53.427422 -12.948200
				CHANNELS 3 Xrotation Yrotation Zrotation
				JOINT LeftToeBase
				{
					OFFSET 0.192200 -14.009700 16.364100
					CHANNELS 3 Xrotation Yrotation Zrotation
					JOINT LeftToe_End
					{
						OFFSET -1.784700 -0.561700 9.474800
						CHANNELS 3 Xrotation Yrotation Zrotation
						End Site
						{
							OFFSET 0.000000 0.000000 0.000000
						}
					}
				}
			}
		}
	}
	JOINT RightUpLeg
	{
		OFFSET -12.883000 -6.336304 -1.092800
		CHANNELS 3 Xrotation Yrotation Zrotation
		JOINT RightLeg
		{
			OFFSET -0.524587 -46.096825 9.782800
			CHANNELS 3 Xrotation Yrotation Zrotation
			JOINT RightFoot
			{
				OFFSET 0.524587 -53.427383 -12.948300
				CHANNELS 3 Xrotation Yrotation Zrotation
				JOINT RightToeBase
				{
					OFFSET -0.192200 -14.009700 16.364100
					CHANNELS 3 Xrotation Yrotation Zrotation
					JOINT RightToe_End
					{
						OFFSET 1.784700 -0.561700 9.474800
						CHANNELS 3 Xrotation Yrotation Zrotation
						End Site
						{
							OFFSET 0.000000 0.000000 0.000000
						}
					}
				}
			}
		}
	}
}
MOTION
Frames: 5
Frame Time: 0.016667
-1.414804 101.046974 9.552803 -23.084011 -5.384824 -2.109112 7.693178 -1.186124 -0.049370 15.374073 -1.676404 -0.551058 0.000000 0.000000 0.000000 15.374078 -1.676406 -0.551058 -11.803036 2.538412 0.513533 -20.543585 1.060036 1.922752 0.000001 -0.000000 0.000000 -0.117971 -1.799430 36.289434 0.000000 0.000000 0.000000 -52.783217 -25.523872 -11.661716 -14.599478 -27.801856 2.187906 12.414554 -2.032447 43.220474 -11.360167 -10.015411 28.397702 19.621105 23.755270 -10.341706 0.000000 0.000002 0.000001 0.000000 0.000000 -0.000000 -7.847195 -3.444999 -67.091213 -4.891795 2.725184 -36.316481 -0.000002 0.000012 0.000001 -0.000000 -0.000000 -0.000001 -10.129901 -3.870853 -67.774246 -1.764488 1.724496 -28.158835 -0.000001 0.000003 0.000001 -0.000001 -0.000001 -0.000001 -15.177621 7.295108 -70.201627 7.766217 -0.421191 -31.520063 0.000001 -0.000003 0.000001 0.000000 -0.000001 -0.000001 -16.484506 5.444199 -74.872575 8.342036 -0.189854 -18.882674 0.000002 -0.000011 0.000000 -0.000001 -0.000001 0.000000 9.813666 24.196317 -37.946059 0.000000 0.000000 0.000000 -46.242184 23.161332 -4.673694 -22.075472 26.224120 3.020023 0.654834 10.544258 -45.154613 15.333561 1.500914 -10.491451 -10.396773 -3.067645 -10.223939 0.000011 0.000002 0.000000 -0.000000 -0.000000 0.000002 0.919873 3.496431 64.452192 1.728451 9.563277 38.865962 0.000002 0.000008 -0.000000 -0.000002 -0.000000 -0.000000 -6.652426 -3.924320 64.485701 9.405997 5.988784 38.253642 0.000001 -0.000001 -0.000001 0.000001 -0.000001 -0.000001 -5.546324 1.390187 64.784788 0.228440 -1.796035 39.151597 0.000001 0.000012 -0.000000 0.000001 0.000000 -0.000001 -17.806353 -16.572295 61.043313 25.318647 3.855944 27.748793 0.000000 -0.000000 0.000000 -0.000000 -0.000002 -0.000000 -99.222964 5.589228 30.777990 122.412331 -19.364121 1.033987 -20.112248 -1.435928 10.012116 -46.495304 -2.668700 -1.962213 0.000002 0.000001 0.000000 -126.283873 -3.633752 -32.472492 127.232573 14.390908 -4.207342 -6.824438 -1.661824 3.681779 -38.850150 6.007508 10.674966 -0.000000 0.000002 -0.000000 
-1.445917 100.731628 9.656815 -22.799870 -5.378427 -2.128541 7.642709 -1.142345 0.000489 15.273326 -1.606445 -0.492266 0.000000 0.000000 0.000000 15.273326 -1.606441 -0.492266 -14.761854 2.627876 0.599233 -18.644386 1.325022 1.660059 -0.000000 -0.000000 -0.000000 -0.463114 -1.070544 36.646116 0.000000 0.000000 0.000000 -52.830871 -25.294849 -12.145896 -14.734612 -28.465339 2.458230 11.791893 -2.162993 40.907598 -11.360187 -10.015414 28.397703 19.621120 23.755256 -10.341706 0.000001 0.000002 -0.000001 0.000000 0.000002 0.000002 -7.847186 -3.445010 -67.091234 -4.891815 2.725213 -36.316471 -0.000003 0.000012 -0.000001 -0.000000 -0.000000 -0.000001 -10.129906 -3.870880 -67.774287 -1.764530 1.724337 -28.158835 -0.000000 0.000003 0.000000 0.000000 0.000000 -0.000000 -15.177604 7.295062 -70.201641 7.766209 -0.421219 -31.520070 0.000002 -0.000002 -0.000001 0.000000 0.000000 -0.000002 -16.484510 5.444109 -74.872588 8.341963 -0.189785 -18.882680 0.000002 -0.000012 -0.000001 -0.000000 0.000001 0.000001 9.574054 23.264850 -38.203434 0.000000 0.000000 0.000000 -46.458182 23.286041 -4.045066 -21.711682 26.550161 2.475550 0.014071 10.416164 -45.533340 15.333565 1.500887 -10.491461 -10.396773 -3.067644 -10.223941 0.000011 0.000002 -0.000001 -0.000000 -0.000000 0.000002 0.919895 3.496425 64.452179 1.728488 9.563361 38.865959 0.000001 0.000006 0.000001 -0.000000 -0.000002 -0.000001 -6.652433 -3.924340 64.485701 9.406023 5.988735 38.253632 0.000001 -0.000001 -0.000000 0.000001 0.000000 0.000000 -5.546323 1.390168 64.784775 0.228517 -1.795947 39.151607 0.000001 0.000012 0.000000 -0.000000 0.000002 0.000001 -17.806368 -16.572305 61.043306 25.318823 3.856008 27.748791 0.000002 0.000002 0.000001 0.000000 -0.000000 0.000000 -99.867713 5.300439 30.502733 122.696617 -19.122518 1.047265 -20.320631 -1.332587 9.776465 -46.287294 -2.741860 -2.033681 0.000002 0.000000 0.000000 -126.830766 -3.494180 -31.903691 127.431249 14.290189 -4.216961 -7.158104 -1.800227 4.081523 -38.486764 5.776732 10.443114 0.000000 -0.000000 0.000000 
-1.476744 100.531082 9.726982 -22.402536 -5.357170 -2.157535 7.525610 -1.099330 0.053106 15.039633 -1.534571 -0.418301 0.000000 0.000000 0.000000 15.039639 -1.534571 -0.418302 -17.769909 2.710620 0.790330 -16.597923 1.605600 1.335112 0.000000 -0.000000 0.000000 -0.794083 -0.411286 37.037664 0.000000 0.000000 0.000000 -53.107364 -25.119629 -13.105116 -14.758154 -28.996667 2.732934 11.472779 -2.333872 38.824636 -11.360189 -10.015420 28.397722 19.621120 23.755268 -10.341706 0.000001 0.000009 0.000002 0.000000 0.000002 -0.000001 -7.847223 -3.445008 -67.091220 -4.891836 2.725262 -36.316474 -0.000002 0.000012 -0.000001 0.000000 -0.000000 -0.000002 -10.129887 -3.870907 -67.774273 -1.764554 1.724192 -28.158824 -0.000000 0.000003 -0.000001 0.000001 -0.000000 -0.000000 -15.177589 7.295029 -70.201641 7.766208 -0.421218 -31.520053 0.000002 -0.000004 -0.000001 0.000000 -0.000000 -0.000001 -16.484482 5.444028 -74.872588 8.341897 -0.189700 -18.882690 0.000002 -0.000012 -0.000001 0.000001 -0.000001 -0.000000 9.273471 22.311035 -38.387897 0.000000 0.000000 0.000000 -46.870903 23.501721 -2.942160 -21.212577 27.007446 1.920321 -0.431574 10.107005 -45.634833 15.333577 1.500901 -10.491442 -10.396773 -3.067644 -10.223938 0.000010 0.000002 0.000000 0.000001 -0.000000 0.000000 0.919890 3.496457 64.452206 1.728555 9.563400 38.865959 0.000001 0.000008 0.000000 -0.000001 0.000000 -0.000000 -6.652415 -3.924338 64.485708 9.406011 5.988763 38.253646 0.000000 0.000001 -0.000001 0.000001 -0.000001 0.000001 -5.546321 1.390171 64.784802 0.228581 -1.795859 39.151621 0.000000 0.000011 0.000002 0.000000 0.000000 0.000001 -17.806365 -16.572305 61.043327 25.318977 3.856099 27.748777 0.000001 -0.000003 0.000001 -0.000001 0.000002 -0.000000 -100.543649 5.023050 30.197345 122.890567 -18.818597 1.054366 -20.360931 -1.244206 9.606186 -46.159788 -2.756070 -2.168685 0.000001 0.000001 -0.000000 -127.296940 -3.379924 -31.328715 127.527254 14.137459 -4.195708 -7.380509 -1.910318 4.372627 -38.305415 5.515459 10.350247 0.000001 0.000001 0.000000 
-1.507170 100.425110 9.774845 -21.932426 -5.333814 -2.197519 7.360910 -1.058260 0.108058 14.710902 -1.463380 -0.331661 0.000000 0.000000 0.000000 14.710906 -1.463383 -0.331660 -20.744666 2.780007 1.039820 -14.458337 1.885081 0.975406 -0.000002 -0.000000 0.000000 -1.099290 0.158974 37.454203 0.000000 0.000000 0.000000 -53.530481 -24.931222 -14.399208 -14.700097 -29.457906 3.027316 11.401999 -2.529857 36.882694 -11.360182 -10.015393 28.397702 19.621129 23.755244 -10.341722 0.000001 0.000006 0.000001 -0.000000 -0.000002 0.000000 -7.847223 -3.445003 -67.091220 -4.891876 2.725278 -36.316485 -0.000002 0.000013 0.000001 0.000000 -0.000000 -0.000003 -10.129889 -3.870929 -67.774273 -1.764573 1.724068 -28.158817 -0.000001 0.000004 0.000000 -0.000000 -0.000001 -0.000001 -15.177585 7.294996 -70.201627 7.766221 -0.421204 -31.520056 0.000002 -0.000002 0.000001 0.000001 0.000000 0.000001 -16.484455 5.443946 -74.872595 8.341838 -0.189598 -18.882693 0.000002 -0.000011 -0.000001 -0.000001 0.000001 0.000001 8.958982 21.389434 -38.537129 0.000000 0.000000 0.000000 -47.400826 23.753704 -1.536021 -20.640009 27.551660 1.343281 -0.735310 9.715911 -45.379036 15.333561 1.500908 -10.491469 -10.396775 -3.067644 -10.223939 0.000011 0.000002 0.000001 -0.000000 0.000000 -0.000002 0.919898 3.496475 64.452179 1.728600 9.563450 38.865935 0.000001 0.000007 0.000002 -0.000000 0.000001 0.000001 -6.652412 -3.924321 64.485715 9.406005 5.988787 38.253625 -0.000000 -0.000000 0.000002 0.000001 0.000000 -0.000001 -5.546324 1.390176 64.784788 0.228672 -1.795784 39.151614 -0.000000 0.000012 -0.000001 -0.000000 -0.000000 -0.000001 -17.806385 -16.572284 61.043320 25.319132 3.856149 27.748769 0.000000 -0.000002 0.000001 -0.000000 -0.000000 0.000000 -101.235978 4.748677 29.881548 123.012445 -18.459653 1.058322 -20.223437 -1.161590 9.475000 -46.170989 -2.734059 -2.361635 0.000001 0.000000 -0.000000 -127.707052 -3.293424 -30.751731 127.547103 13.924042 -4.159016 -7.474007 -1.992074 4.585097 -38.304766 5.237343 10.376534 0.000001 -0.000000 0.000000 
-1.536320 100.448586 9.794468 -21.393525 -5.315517 -2.255804 7.142071 -1.020834 0.165897 14.274076 -1.394823 -0.228714 0.000000 0.000000 0.000000 14.274073 -1.394824 -0.228715 -23.605299 2.824561 1.341884 -12.221442 2.150335 0.584533 0.000000 0.000000 -0.000000 -1.351299 0.585396 37.896560 0.000000 0.000000 0.000000 -54.106300 -24.663998 -16.084361 -14.545337 -29.884188 3.360787 11.661050 -2.738217 35.089257 -11.360181 -10.015421 28.397693 19.621110 23.755256 -10.341697 0.000000 0.000003 0.000002 0.000000 0.000000 -0.000001 -7.847202 -3.444998 -67.091234 -4.891910 2.725288 -36.316478 -0.000003 0.000013 0.000004 0.000001 -0.000000 0.000003 -10.129864 -3.870952 -67.774280 -1.764601 1.723918 -28.158809 -0.000002 0.000004 0.000002 0.000000 -0.000001 -0.000003 -15.177563 7.294967 -70.201627 7.766214 -0.421202 -31.520070 0.000002 -0.000002 0.000003 -0.000000 -0.000000 -0.000000 -16.484436 5.443870 -74.872602 8.341767 -0.189524 -18.882712 0.000001 -0.000012 -0.000000 -0.000001 -0.000001 0.000000 8.659221 20.554172 -38.660776 0.000000 0.000000 0.000000 -48.041119 24.002523 0.198538 -20.014594 28.209938 0.737823 -0.862511 9.271110 -44.551125 15.333570 1.500888 -10.491457 -10.396773 -3.067644 -10.223942 0.000010 0.000002 0.000000 0.000001 0.000000 0.000000 0.919910 3.496470 64.452172 1.728646 9.563508 38.865921 0.000003 0.000007 0.000001 -0.000000 0.000000 -0.000000 -6.652417 -3.924337 64.485701 9.406009 5.988776 38.253632 -0.000000 -0.000001 0.000001 0.000000 0.000000 0.000001 -5.546318 1.390168 64.784781 0.228772 -1.795741 39.151621 -0.000000 0.000010 0.000001 0.000000 0.000001 -0.000003 -17.806361 -16.572300 61.043313 25.319293 3.856277 27.748741 0.000001 -0.000002 0.000001 -0.000000 -0.000002 0.000000 -101.925943 4.476353 29.566820 123.035503 -18.027292 1.060064 -19.814819 -1.081608 9.386301 -46.431459 -2.676303 -2.635139 0.000000 0.000001 -0.000000 -128.034095 -3.253323 -30.177224 127.469047 13.617534 -4.110336 -7.363669 -2.032563 4.702866 -38.572592 4.945657 10.564797 -0.000002 0.000001 0.000000 
